<?xml version="1.0" encoding="UTF-8"?> <svg xmlns="http://www.w3.org/2000/svg" width="752" height="256" viewBox="0 0 752 256" fill="none"> <path fill-rule="evenodd" clip-rule="evenodd" d="M319.563 18.0015L209.563 128.001L227.236 145.684L354.918 18.0015H319.563Z" fill="white"></path> <path fill-rule="evenodd" clip-rule="evenodd" d="M244.908 128L227.236 110.328L209.553 128L227.236 145.684L319.552 237.999H354.907L244.908 128Z" fill="white"></path> <path fill-rule="evenodd" clip-rule="evenodd" d="M209.555 238V218H184.555V238H209.555Z" fill="#FF591B"></path> <path d="M184.555 218H209.555V213H184.555V218Z" fill="#FF591B"></path> <path d="M488.215 238C532.979 238 565.56 207.179 565.56 164.618C565.56 124.551 534.787 92.6209 494.28 92.6209C465.514 92.6209 448.192 107.65 436.67 120.674L436.554 129.101C436.995 76.4123 455.487 45.5917 489.096 45.5917C509.35 45.5917 524.026 55.8652 529.75 73.477H562.772C556.461 40.1614 527.255 18 489.39 18C436.408 18 405 59.9746 405 130.862C405 207.62 445.067 238 488.215 238ZM487.775 210.262C462.678 210.262 443.012 190.302 443.012 165.058C443.012 139.961 462.238 121.616 488.215 121.616C514.193 121.616 532.832 140.108 532.832 165.792C532.832 190.595 512.872 210.262 487.775 210.262Z" fill="white"></path> <path d="M668.345 18C623.582 18 591 48.8206 591 91.3823C591 131.449 621.774 163.379 662.281 163.379C691.047 163.379 708.369 148.35 719.891 135.326L720.006 126.899C719.566 179.588 701.074 210.408 667.464 210.408C647.211 210.408 632.535 200.135 626.811 182.523H593.789C600.1 215.839 629.306 238 667.171 238C720.153 238 751.561 196.025 751.561 125.138C751.561 48.3803 711.494 18 668.345 18ZM668.785 45.7385C693.882 45.7385 713.549 65.6985 713.549 90.942C713.549 116.039 694.322 134.384 668.345 134.384C642.368 134.384 623.729 115.892 623.729 90.2081C623.729 65.4049 643.689 45.7385 668.785 45.7385Z" fill="white"></path> <path d="M0 182.5C2.02349 220.421 33.3875 238 80.5059 238C129.07 238 160 212.769 160 172.634C160 141.649 142.078 123.795 98.4282 114.351L75.5917 109.482C48.5637 103.58 37.8681 93.2515 37.8681 77.7585C37.8681 58.2817 55.7904 46.1824 80.2168 46.1824C105.51 46.1824 122.71 52.105 124.734 73.5H156.098C155.086 36.3169 124.878 18 80.6504 18C36.2782 18 4.91418 43.0838 4.91418 79.5292C4.91418 110.22 23.8482 129.992 65.6188 138.993L88.3108 143.862C116.206 150.059 127.191 160.388 127.191 176.913C127.191 195.948 108.257 209.818 81.8067 209.818C54.056 209.818 34.3993 203.6 31.5086 182.5H0Z" fill="white"></path> </svg> 